<?xml version="1.0" standalone="no"?>
<!DOCTYPE svg PUBLIC "-//W3C//DTD SVG 20010904//EN"
 "http://www.w3.org/TR/2001/REC-SVG-20010904/DTD/svg10.dtd">
<svg version="1.0" xmlns="http://www.w3.org/2000/svg"
 width="1052.000000pt" height="1052.000000pt" viewBox="0 0 1052.000000 1052.000000"
 preserveAspectRatio="xMidYMid meet">
<metadata>
Created by potrace 1.14, written by Peter Selinger 2001-2017
</metadata>
<g transform="translate(0.000000,1052.000000) scale(0.100000,-0.100000)"
fill="#000000" stroke="none">
<path d="M4978 10515 c-2 -2 -48 -6 -103 -10 -55 -3 -116 -7 -135 -10 -19 -2
-57 -7 -85 -10 -27 -3 -70 -8 -95 -12 -25 -4 -52 -8 -60 -8 -16 -2 -103 -15
-135 -21 -11 -3 -35 -7 -54 -10 -42 -7 -50 -9 -136 -28 -38 -9 -81 -18 -95
-20 -14 -2 -79 -19 -145 -36 -66 -18 -133 -36 -150 -40 -48 -12 -294 -95 -370
-125 -38 -15 -74 -28 -80 -29 -5 -1 -32 -12 -59 -24 -27 -12 -50 -22 -53 -22
-2 0 -28 -11 -56 -24 -29 -13 -81 -36 -117 -52 -36 -15 -72 -34 -81 -41 -8 -7
-22 -13 -30 -13 -8 0 -25 -9 -39 -20 -14 -11 -31 -20 -38 -20 -12 0 -24 -6
-89 -47 -16 -10 -34 -18 -40 -19 -7 -1 -24 -12 -39 -23 -15 -12 -30 -21 -34
-21 -5 0 -37 -18 -71 -40 -35 -22 -71 -43 -79 -47 -17 -8 -160 -98 -176 -112
-6 -5 -28 -20 -50 -34 -21 -14 -64 -44 -94 -66 -30 -22 -66 -48 -80 -58 -14
-9 -45 -33 -70 -53 -25 -19 -49 -38 -55 -43 -5 -4 -22 -17 -36 -30 -14 -12
-45 -38 -69 -57 -182 -150 -433 -396 -585 -575 -33 -38 -64 -75 -70 -81 -5 -6
-23 -28 -40 -49 -16 -21 -35 -43 -41 -49 -18 -20 -108 -140 -173 -232 -19 -27
-39 -52 -45 -56 -6 -4 -7 -8 -2 -8 5 0 1 -10 -10 -22 -20 -23 -68 -93 -89
-128 -5 -10 -44 -75 -85 -143 -99 -165 -113 -190 -116 -203 -1 -6 -14 -30 -28
-52 -14 -23 -23 -42 -19 -42 5 0 4 -4 -2 -8 -8 -5 -84 -152 -90 -172 -1 -3 -5
-17 -9 -32 -5 -16 -11 -28 -15 -28 -4 0 -13 -15 -18 -32 -6 -18 -33 -87 -61
-153 -27 -66 -66 -169 -86 -230 -21 -60 -40 -117 -43 -125 -4 -8 -7 -19 -8
-25 -2 -5 -16 -55 -33 -110 -33 -108 -74 -267 -91 -355 -12 -59 -18 -87 -26
-122 -3 -13 -8 -39 -11 -58 -3 -19 -9 -60 -14 -90 -5 -30 -12 -72 -15 -92 -3
-21 -8 -55 -11 -75 -27 -183 -39 -391 -39 -683 1 -251 6 -376 20 -500 2 -25 7
-72 10 -105 4 -33 10 -87 15 -120 5 -33 12 -82 16 -110 3 -27 8 -53 10 -56 2
-4 6 -24 9 -45 3 -22 7 -50 10 -64 12 -51 17 -76 20 -95 9 -52 72 -305 97
-385 70 -226 129 -393 177 -502 12 -26 21 -50 21 -53 0 -40 299 -615 400 -770
8 -12 26 -41 39 -64 14 -22 28 -41 33 -41 4 0 8 -4 8 -10 0 -10 87 -139 120
-177 11 -13 17 -23 12 -23 -4 0 1 -5 11 -11 9 -5 17 -16 17 -24 0 -7 3 -15 8
-17 4 -1 32 -34 62 -73 30 -38 57 -72 60 -75 3 -3 24 -27 45 -54 43 -53 100
-118 153 -173 17 -18 32 -35 32 -37 0 -5 201 -206 271 -271 50 -46 192 -170
235 -205 119 -96 176 -139 269 -206 61 -44 118 -83 126 -89 9 -5 42 -28 75
-50 183 -122 567 -330 764 -414 260 -110 665 -250 803 -277 10 -2 27 -6 37 -9
10 -3 29 -8 42 -11 13 -3 32 -7 43 -9 11 -3 29 -7 40 -9 11 -2 54 -11 95 -20
41 -8 91 -18 110 -21 19 -3 42 -8 50 -10 18 -5 74 -13 138 -21 26 -3 58 -7 72
-9 14 -2 48 -6 75 -10 28 -3 66 -7 85 -10 195 -27 796 -27 1030 0 19 2 61 6
94 9 32 4 68 8 80 11 11 2 44 7 71 10 63 7 227 35 235 40 3 2 26 6 50 10 25 3
59 10 75 15 17 5 46 12 65 15 19 3 43 8 52 11 9 3 27 7 40 9 35 7 340 95 363
105 11 5 49 18 85 30 36 11 74 25 85 30 11 5 45 17 75 28 30 11 69 26 85 33
17 7 32 13 35 14 14 5 53 22 128 56 45 21 82 35 82 31 0 -4 4 -2 8 3 4 6 41
26 82 45 41 19 77 38 78 43 2 4 10 7 17 7 7 0 78 37 156 81 79 45 154 87 166
93 13 6 23 14 23 19 0 4 5 7 10 7 6 0 44 23 85 50 41 28 79 50 85 50 5 0 10 4
10 8 0 5 16 17 35 28 19 10 35 22 35 26 0 5 5 8 10 8 6 0 43 25 83 55 143 107
199 150 222 170 12 11 42 36 66 55 24 19 56 47 71 62 15 16 29 28 32 28 13 0
319 301 408 402 29 33 62 70 73 83 69 76 85 95 85 100 0 3 11 16 25 29 14 13
25 26 25 29 0 3 9 16 20 29 11 12 42 52 70 88 27 36 54 70 60 77 5 7 10 16 10
22 0 5 4 11 8 13 11 4 102 137 102 148 0 6 4 10 10 10 5 0 17 16 26 35 9 19
21 35 26 35 5 0 7 4 3 9 -3 5 -1 12 4 15 9 6 99 153 154 251 60 108 195 386
241 495 27 63 52 124 57 135 27 65 66 175 62 175 -3 0 -1 6 5 13 9 11 125 376
136 429 3 13 21 93 40 178 19 85 37 169 39 185 3 17 10 57 15 90 6 33 13 80
16 105 4 25 8 54 10 65 2 11 7 54 11 95 4 41 8 77 10 80 10 16 20 305 19 545
0 274 -6 388 -29 584 -4 29 -8 63 -10 75 -2 11 -6 44 -10 71 -6 49 -14 101
-22 140 -2 11 -8 47 -14 80 -5 33 -14 76 -19 95 -5 19 -12 49 -14 65 -17 91
-105 416 -118 433 -6 6 -8 12 -5 12 9 0 -96 299 -138 395 -7 17 -22 53 -33 80
-11 28 -41 94 -66 148 -25 55 -46 103 -46 108 0 5 -4 9 -10 9 -5 0 -10 5 -10
12 0 12 -88 189 -99 198 -3 3 -15 23 -26 45 -51 103 -300 490 -331 516 -8 6
-14 18 -14 25 0 8 -3 14 -8 14 -4 0 -28 28 -52 62 -25 34 -49 66 -55 72 -5 6
-37 45 -70 86 -67 82 -123 147 -172 197 -18 18 -33 34 -33 37 0 16 -353 351
-466 442 -22 18 -51 42 -65 55 -14 13 -33 29 -41 34 -8 6 -66 49 -129 96 -127
95 -275 199 -284 199 -3 0 -11 5 -18 10 -10 9 -46 32 -152 97 -215 132 -548
294 -790 384 -44 17 -89 34 -100 39 -11 5 -56 21 -100 36 -44 14 -87 29 -95
32 -8 3 -19 6 -25 8 -5 1 -41 12 -80 24 -38 12 -77 23 -85 25 -8 2 -17 4 -20
5 -3 1 -9 3 -15 5 -5 1 -13 3 -17 5 -5 1 -11 3 -15 4 -5 1 -48 11 -98 23 -148
36 -268 62 -306 67 -19 3 -46 7 -59 10 -14 4 -38 8 -55 10 -38 5 -192 26 -225
31 -14 2 -61 7 -105 10 -44 4 -96 9 -115 12 -41 5 -667 13 -672 8z"/>
</g>
</svg>
